<?xml version="1.0" standalone="no"?>
<!DOCTYPE svg PUBLIC "-//W3C//DTD SVG 20010904//EN"
 "http://www.w3.org/TR/2001/REC-SVG-20010904/DTD/svg10.dtd">
<svg version="1.0" xmlns="http://www.w3.org/2000/svg"
 width="300.000000pt" height="140.000000pt" viewBox="0 0 300.000000 140.000000"
 preserveAspectRatio="xMidYMid meet">
<metadata>
Created by potrace 1.10, written by Peter Selinger 2001-2011
</metadata>
<g transform="translate(0.000000,140.000000) scale(0.100000,-0.100000)"
fill="#000000" stroke="none">
<path d="M10 1155 c0 -189 3 -245 13 -245 9 0 12 24 10 92 -1 51 -2 95 -3 98
-1 3 -1 71 0 153 1 100 -2 147 -9 147 -8 0 -11 -76 -11 -245z"/>
<path d="M1506 1349 c-27 -27 -47 -52 -44 -55 3 -3 32 18 63 45 61 54 78 62
68 34 -6 -16 -4 -16 15 1 12 11 22 21 22 23 0 1 -17 3 -37 2 -32 0 -46 -9 -87
-50z"/>
<path d="M2968 1388 c-4 -35 -3 -148 2 -148 10 0 -2 -85 -14 -92 -8 -6 -8 -8
1 -8 10 0 13 -45 12 -187 0 -104 2 -195 6 -203 3 -9 -4 -26 -15 -38 l-21 -22
26 0 25 0 0 355 c0 230 -4 355 -10 355 -5 0 -11 -6 -12 -12z"/>
<path d="M380 1295 c0 -5 40 -46 69 -70 19 -15 17 -10 -8 22 -29 36 -61 62
-61 48z"/>
<path d="M2119 1271 c6 -11 11 -30 11 -42 0 -32 17 -11 22 26 2 25 -1 31 -20
33 -21 3 -22 1 -13 -17z"/>
<path d="M2210 1249 c0 -9 41 -29 61 -29 19 0 -1 18 -31 28 -19 7 -30 7 -30 1z"/>
<path d="M1984 1194 c3 -9 9 -27 12 -40 5 -19 12 -24 38 -23 29 0 30 1 9 11
-12 6 -27 23 -34 39 -12 30 -36 42 -25 13z"/>
<path d="M2350 1182 c1 -8 80 -65 85 -60 2 2 -5 13 -15 25 -18 23 -70 49 -70
35z"/>
<path d="M1830 1135 c13 -14 31 -25 39 -25 11 1 6 9 -14 25 -39 32 -55 32 -25
0z"/>
<path d="M2120 1133 c0 -5 14 -21 30 -37 23 -22 30 -25 30 -13 0 10 -9 26 -20
37 -20 20 -40 26 -40 13z"/>
<path d="M216 1101 c-7 -11 -7 -11 71 -51 l58 -30 -34 30 c-19 16 -37 27 -40
25 -2 -3 -15 4 -27 16 -13 12 -24 16 -28 10z"/>
<path d="M1900 1055 c31 -18 67 -19 67 -2 0 8 -16 13 -46 14 -45 2 -45 2 -21
-12z"/>
<path d="M2050 1060 c0 -5 5 -12 10 -15 6 -4 8 -11 4 -16 -3 -5 -1 -8 5 -7 5
2 16 -6 24 -17 23 -30 32 -11 11 24 -16 28 -54 49 -54 31z"/>
<path d="M2185 1026 c22 -15 85 -31 85 -21 0 8 -65 35 -87 35 -16 0 -15 -1 2
-14z"/>
<path d="M241 986 c10 -9 109 -56 109 -51 0 5 -95 55 -106 55 -4 0 -5 -2 -3
-4z"/>
<path d="M1816 954 c-18 -17 -21 -28 -6 -19 6 3 10 -1 10 -10 0 -21 16 -11 23
15 7 26 -7 34 -27 14z"/>
<path d="M476 898 c-3 -7 -7 -43 -10 -80 -4 -37 -9 -75 -12 -83 -4 -10 0 -15
10 -15 9 0 16 8 16 18 0 32 13 33 41 6 18 -17 34 -24 44 -20 14 5 11 11 -15
33 l-32 27 32 26 c23 19 29 29 21 35 -8 4 -26 -6 -48 -26 l-35 -34 7 49 c3 27
9 55 12 62 3 8 -1 14 -11 14 -9 0 -18 -6 -20 -12z"/>
<path d="M10 797 c0 -53 3 -97 8 -97 9 0 8 178 -2 187 -3 3 -6 -37 -6 -90z"/>
<path d="M66 858 c-3 -18 -8 -57 -11 -87 l-6 -54 38 6 c21 4 50 7 66 7 17 0
27 5 27 15 0 11 -10 13 -51 8 l-51 -6 5 29 c18 93 19 114 3 114 -9 0 -17 -12
-20 -32z"/>
<path d="M1155 878 c-2 -7 -6 -46 -7 -87 -2 -52 1 -75 10 -78 8 -3 12 7 12 30
0 32 2 35 40 41 51 8 52 26 1 26 -35 0 -38 2 -33 25 4 22 9 25 48 25 32 0 44
4 44 15 0 19 -108 22 -115 3z"/>
<path d="M1829 868 c-54 -50 -62 -128 -15 -149 51 -24 136 46 136 113 0 54
-77 77 -121 36z m75 -11 c38 -28 -13 -117 -66 -117 -39 0 -35 64 7 106 28 28
34 29 59 11z"/>
<path d="M2415 878 c-10 -26 -10 -153 0 -158 6 -3 11 9 13 26 3 28 7 32 43 38
51 8 47 30 -4 29 -62 -1 -45 44 18 49 58 4 49 22 -13 26 -36 2 -54 -1 -57 -10z"/>
<path d="M2589 883 c-36 -4 -36 -4 -42 -61 -3 -31 -9 -67 -13 -80 -6 -23 -5
-23 56 -20 44 2 65 7 68 17 4 11 -5 13 -48 8 -44 -5 -51 -4 -46 9 3 9 6 20 6
24 0 5 19 10 42 12 24 2 43 9 46 17 4 11 -5 13 -43 8 -40 -6 -46 -5 -41 9 3 9
6 20 6 25 0 5 20 9 45 9 33 0 45 4 45 15 0 15 -6 16 -81 8z"/>
<path d="M1960 863 c0 -7 5 -13 11 -13 12 0 5 -105 -12 -163 -11 -39 -2 -49
36 -38 17 5 22 10 13 10 -14 1 -18 10 -18 35 0 30 3 33 21 29 42 -11 99 71 77
111 -13 24 -36 20 -65 -11 -24 -26 -26 -26 -21 -6 4 13 0 27 -8 34 -8 6 -12
15 -9 18 2 4 -2 8 -10 8 -8 0 -15 -6 -15 -14z m110 -58 c0 -24 -49 -70 -62
-57 -7 7 -4 20 11 41 24 33 51 41 51 16z"/>
<path d="M223 828 c-28 -32 -34 -54 -23 -83 12 -31 48 -33 81 -6 31 25 18 38
-16 15 -18 -12 -29 -14 -36 -7 -8 8 -3 15 17 24 33 17 49 41 41 63 -9 23 -40
20 -64 -6z m47 -6 c0 -5 -9 -17 -20 -27 -16 -14 -20 -15 -20 -4 0 16 19 39 32
39 4 0 8 -4 8 -8z"/>
<path d="M349 819 c-20 -22 -29 -41 -29 -65 0 -41 22 -45 57 -12 l23 21 0 -21
c0 -16 6 -22 21 -22 18 0 19 2 9 15 -8 10 -10 29 -7 52 11 67 -26 83 -74 32z
m51 -9 c0 -19 -32 -60 -46 -60 -18 0 -18 6 3 41 17 28 43 40 43 19z"/>
<path d="M626 823 c-43 -43 -48 -103 -8 -103 11 0 25 7 33 16 11 14 13 14 21
0 5 -9 16 -16 23 -16 17 0 20 16 5 25 -6 4 -8 21 -4 41 6 35 -7 64 -31 64 -7
0 -24 -12 -39 -27z m28 -54 c-37 -41 -48 -9 -11 37 22 29 22 29 25 6 2 -13 -4
-32 -14 -43z"/>
<path d="M795 840 c-60 -24 -92 -110 -42 -110 13 0 28 5 35 12 18 18 23 4 11
-30 -12 -34 -34 -41 -71 -21 -11 6 -23 8 -26 4 -11 -11 38 -45 63 -45 31 0 65
45 65 86 0 18 5 45 10 60 7 19 7 30 -1 40 -13 16 -16 16 -44 4z m25 -29 c0
-16 -41 -61 -56 -61 -19 0 -18 13 7 44 20 25 49 35 49 17z"/>
<path d="M890 830 c-25 -25 -36 -68 -23 -89 15 -24 56 -25 84 -2 31 25 19 38
-16 15 -18 -12 -29 -14 -37 -6 -7 7 -1 15 20 26 31 16 49 47 37 66 -10 16 -44
11 -65 -10z"/>
<path d="M1287 842 c-5 -7 -10 -72 -8 -104 1 -10 8 -18 16 -18 8 0 15 8 15 18
0 9 9 32 20 50 16 25 25 32 40 27 26 -8 28 20 3 30 -13 4 -26 -3 -46 -27 l-27
-33 6 33 c6 29 -7 45 -19 24z"/>
<path d="M1411 824 c-25 -32 -28 -89 -5 -98 28 -11 51 -6 69 14 23 26 11 39
-15 15 -11 -10 -26 -15 -35 -11 -18 6 -11 26 9 26 21 0 57 45 50 63 -9 26 -50
20 -73 -9z m49 -9 c0 -8 -9 -19 -20 -25 -15 -8 -20 -8 -20 3 0 14 19 37 32 37
4 0 8 -7 8 -15z"/>
<path d="M1531 824 c-54 -68 6 -141 68 -83 30 28 20 35 -18 13 -23 -14 -34
-15 -42 -7 -9 9 -3 15 24 26 34 15 55 47 42 67 -12 19 -53 10 -74 -16z m49 -9
c0 -8 -9 -19 -20 -25 -24 -13 -27 2 -4 24 19 20 24 20 24 1z"/>
<path d="M2143 828 c-63 -69 -12 -146 58 -89 31 25 18 38 -16 15 -18 -12 -29
-14 -36 -7 -8 8 -3 15 17 24 33 17 49 41 41 63 -9 23 -40 20 -64 -6z m47 -7
c0 -12 -42 -42 -49 -36 -5 6 29 45 41 45 4 0 8 -4 8 -9z"/>
<path d="M2246 832 c-9 -15 -10 -106 -1 -108 6 -2 22 17 37 42 30 49 48 50 48
3 0 -30 20 -47 40 -34 7 4 5 11 -5 21 -8 9 -15 26 -15 38 0 48 -47 57 -68 13
-10 -21 -11 -21 -11 6 -1 25 -14 36 -25 19z"/>
<path d="M1040 802 c-61 -6 -59 -22 3 -22 31 0 57 4 57 9 0 13 -20 17 -60 13z"/>
<path d="M1683 802 c-62 -5 -53 -22 12 -22 30 0 55 4 55 9 0 13 -19 17 -67 13z"/>
<path d="M2969 663 c-1 -5 0 -12 1 -18 1 -5 5 -28 10 -50 8 -39 8 -39 9 18 1
32 -3 57 -9 57 -5 0 -11 -3 -11 -7z"/>
<path d="M2282 593 c-47 -19 -39 -23 16 -7 65 20 71 23 41 21 -14 0 -40 -7
-57 -14z"/>
<path d="M2850 589 c-21 -9 -50 -15 -82 -18 -5 -1 -8 -10 -8 -22 0 -12 -8 -23
-20 -26 -11 -3 -17 -10 -13 -16 4 -6 1 -7 -6 -3 -9 6 -8 13 5 27 23 26 12 24
-32 -6 -44 -30 -67 -31 -102 -7 -15 10 -32 22 -39 26 -7 4 -23 -10 -41 -37
-17 -23 -41 -49 -55 -56 -25 -13 -42 -39 -33 -48 2 -2 12 4 22 15 11 10 34 29
52 41 17 12 32 29 32 37 0 16 43 12 65 -6 8 -7 33 -9 59 -7 27 3 44 1 40 -4
-3 -5 -10 -7 -15 -4 -5 4 -12 -1 -15 -9 -3 -9 -15 -16 -25 -16 -10 0 -19 -4
-19 -8 0 -5 -19 -14 -42 -21 -60 -18 -71 -25 -74 -44 -3 -21 2 -21 34 1 15 10
53 28 86 40 32 12 75 35 95 51 20 15 47 34 61 41 15 8 20 15 12 18 -17 5 -15
22 3 22 8 0 30 9 50 20 35 20 46 16 23 -9 -11 -12 -10 -13 6 -7 24 8 79 -26
94 -59 15 -33 16 -32 -12 -39 -29 -7 -69 8 -110 42 l-30 24 -9 -24 c-5 -12
-10 -43 -12 -68 -2 -25 -9 -44 -14 -43 -6 2 -10 -3 -8 -10 1 -6 -4 -11 -11 -9
-8 1 -11 -1 -8 -6 7 -11 -40 -57 -58 -57 -12 0 -47 -26 -129 -96 -24 -21 -50
-35 -61 -33 -26 4 -58 -14 -50 -28 5 -8 1 -9 -10 -5 -11 5 -15 3 -10 -5 5 -7
2 -9 -7 -6 -8 3 -30 -8 -49 -24 l-35 -30 40 21 c46 24 69 27 41 6 -11 -8 -16
-15 -10 -15 17 1 44 27 36 35 -4 5 2 5 13 1 11 -4 16 -4 12 0 -11 11 13 34 37
34 20 -1 20 -2 -4 -15 -29 -16 -19 -20 11 -4 11 5 16 15 13 21 -5 8 -1 9 10 5
10 -4 15 -3 11 3 -6 9 8 14 28 11 4 -1 16 3 26 8 10 6 29 12 42 14 35 7 129
67 129 83 0 17 -5 17 -31 4 -28 -15 -24 -8 22 40 31 32 40 49 36 67 -4 23 -3
24 11 9 15 -15 15 -19 -2 -49 l-19 -32 25 25 c14 14 23 29 20 34 -3 5 -1 6 5
3 6 -4 25 -2 44 3 26 8 37 7 48 -5 14 -13 13 -15 -9 -13 -14 1 -37 -6 -52 -16
-34 -22 -37 -31 -5 -15 21 11 21 11 5 -8 -17 -18 -16 -19 7 -18 13 0 30 6 37
14 11 11 9 11 -12 1 l-25 -13 19 22 c11 11 21 19 24 16 3 -2 13 0 23 6 17 9
19 6 14 -25 -2 -20 1 -38 6 -42 6 -4 4 -13 -7 -25 -13 -15 -14 -18 -3 -14 10
4 15 -1 16 -15 3 -32 -82 -28 -127 5 -34 25 -60 32 -60 16 0 -5 -24 -24 -52
-42 -99 -62 -177 -123 -170 -134 11 -18 11 -36 -1 -32 -7 2 -12 9 -12 14 0 6
-4 15 -9 20 -5 4 -7 3 -3 -2 3 -6 -27 -27 -66 -48 -40 -20 -63 -37 -52 -37 11
0 38 12 59 26 28 19 41 23 49 15 7 -7 7 -11 1 -11 -6 0 -19 -7 -30 -15 -16
-12 -12 -12 22 1 23 9 60 33 83 55 22 21 46 39 51 39 6 0 28 18 50 40 22 22
38 40 35 40 -14 0 -85 -52 -85 -62 0 -6 -3 -8 -6 -5 -4 3 -16 1 -28 -5 -21
-11 -21 -11 -2 10 10 12 24 19 30 15 6 -3 8 -2 3 2 -6 7 103 85 119 85 2 0 -3
-14 -12 -31 -10 -20 -12 -35 -6 -41 6 -6 16 5 28 31 14 30 25 41 42 41 12 0
22 -4 22 -8 0 -4 8 -8 18 -9 31 -2 84 -12 89 -16 2 -3 7 -45 10 -94 3 -48 9
-92 14 -97 5 -6 9 97 9 257 0 157 -4 267 -9 267 -5 0 -30 16 -55 35 -26 19
-47 35 -49 34 -1 0 -13 -5 -27 -10z m68 -163 c16 -18 16 -18 -7 -13 -14 4 -31
1 -37 -4 -19 -16 -49 5 -49 34 -1 23 1 23 37 12 21 -6 46 -19 56 -29z"/>
<path d="M2434 478 c-21 -27 -29 -28 -25 -5 2 15 -8 6 -29 -25 -21 -32 -21
-32 -1 -9 20 22 25 21 22 -4 -1 -5 11 4 25 20 15 17 31 30 35 30 4 0 13 5 19
11 8 8 6 11 -5 11 -9 0 -27 -13 -41 -29z"/>
<path d="M13 262 l2 -226 43 -12 c23 -7 40 -9 37 -5 -2 5 -18 11 -34 14 -29 6
-29 7 -28 67 1 33 5 60 9 60 4 0 5 7 2 15 -3 8 0 21 8 29 13 12 22 6 71 -45
32 -32 62 -59 68 -59 6 0 -3 13 -20 29 -17 16 -31 33 -31 37 0 4 11 -3 24 -15
15 -14 26 -19 31 -12 6 11 5 12 -12 15 -23 4 -127 90 -128 106 -1 3 -6 15 -13
27 -9 17 -9 22 1 26 9 4 9 6 0 6 -13 1 -18 43 -7 54 4 3 25 -6 48 -22 115 -79
155 -103 165 -100 6 2 -19 24 -54 48 -36 24 -64 45 -62 47 4 4 37 -14 129 -69
16 -9 38 -19 48 -20 10 -2 25 -9 33 -15 8 -7 19 -12 23 -11 15 2 54 -13 54
-21 0 -4 17 -6 38 -4 20 2 46 0 57 -6 49 -23 95 -38 90 -30 -8 14 -65 42 -65
33 0 -4 -5 -2 -12 5 -7 7 -32 12 -56 12 -30 0 -60 10 -98 31 -31 17 -58 28
-61 25 -4 -3 -44 14 -90 39 -50 26 -90 42 -100 38 -11 -4 -14 -3 -9 5 4 8 2
10 -8 6 -10 -4 -14 0 -12 12 2 10 9 20 16 22 7 3 10 0 6 -6 -4 -7 2 -9 15 -7
13 3 29 -1 37 -7 10 -9 15 -9 22 1 5 8 10 9 14 3 3 -6 1 -12 -5 -14 -7 -2 1
-12 16 -22 15 -10 24 -13 20 -6 -5 9 -1 10 15 5 16 -5 21 -4 18 6 -3 8 -11 14
-19 14 -8 0 -15 12 -17 28 -4 30 -11 32 -64 13 -36 -13 -37 -13 -83 30 -26 23
-53 45 -60 48 -11 4 -13 -37 -12 -222z m81 136 c-8 -12 -72 36 -71 53 1 13 9
10 38 -14 21 -18 35 -35 33 -39z"/>
<path d="M2108 423 c-6 -16 -12 -32 -13 -38 -3 -24 -20 -52 -49 -85 -17 -19
-23 -28 -13 -21 28 22 22 -11 -8 -39 -25 -24 -35 -16 -12 10 10 12 9 12 -6 1
-10 -8 -15 -21 -12 -31 5 -17 -29 -54 -100 -108 l-30 -23 32 5 c17 2 48 16 67
31 43 33 110 139 102 161 -3 8 -2 12 4 9 6 -3 10 -1 10 5 0 6 5 8 10 5 6 -3
10 4 10 17 1 26 24 61 33 51 4 -3 7 3 7 15 0 23 14 29 25 12 3 -5 12 -7 20 -3
8 3 15 1 15 -5 0 -10 70 -28 98 -25 6 0 12 -3 12 -7 0 -4 11 -8 25 -9 48 -3
55 -4 55 -13 0 -5 5 -6 10 -3 6 3 10 3 10 -2 0 -4 11 -8 25 -8 14 0 25 2 25 5
0 8 -60 32 -99 41 -20 5 -49 11 -66 15 -16 3 -57 19 -89 35 -73 36 -84 36 -98
2z"/>
<path d="M2659 401 c-7 -19 -93 -80 -100 -70 -3 6 -14 3 -25 -8 -11 -10 -14
-14 -7 -9 7 4 21 5 30 2 15 -6 15 -9 3 -16 -8 -5 -17 -7 -21 -5 -3 3 -14 -4
-24 -15 -10 -11 -21 -17 -25 -15 -4 2 -16 -5 -26 -18 -16 -18 -16 -19 -1 -8
15 12 21 9 18 -11 0 -5 4 -8 9 -8 6 0 10 4 10 9 0 11 94 80 118 88 10 2 4 -6
-13 -18 -38 -29 -105 -101 -105 -113 0 -4 37 25 81 65 45 41 96 86 113 101 26
23 28 27 11 25 -11 -1 -37 -13 -56 -25 -53 -32 -60 -27 -14 12 22 19 37 37 34
41 -4 3 -9 2 -10 -4z"/>
<path d="M332 385 c-47 -9 -50 -11 -32 -23 11 -7 20 -9 20 -4 0 4 15 9 33 10
27 2 39 -5 77 -46 25 -28 56 -53 70 -57 23 -7 22 -4 -11 26 -20 19 -51 50 -70
69 -34 36 -34 36 -87 25z"/>
<path d="M1764 328 c-14 -24 -42 -62 -60 -85 -19 -23 -30 -44 -26 -47 10 -6
52 30 52 45 0 6 5 7 10 4 6 -3 10 -1 10 6 0 7 10 28 23 46 21 31 25 32 70 29
27 -3 50 -6 53 -8 7 -8 -89 -109 -100 -105 -6 2 -24 -12 -41 -32 -21 -26 -23
-30 -6 -16 13 11 25 18 27 15 4 -6 174 142 174 151 0 9 -49 21 -59 15 -8 -5
-46 4 -83 19 -12 5 -23 -4 -44 -37z"/>
<path d="M575 329 c-27 -10 -36 -16 -20 -12 17 4 46 7 67 8 28 0 34 3 26 13
-13 15 -11 15 -73 -9z"/>
<path d="M2450 307 l-31 -37 38 24 c77 51 78 51 50 51 -17 0 -36 -13 -57 -38z"/>
<path d="M1998 310 c-14 -10 -28 -17 -31 -14 -3 4 -26 -9 -51 -27 -25 -18 -44
-35 -41 -37 3 -3 23 9 46 27 45 37 69 34 26 -3 -15 -13 -24 -25 -21 -28 2 -3
-19 -32 -48 -63 -29 -32 -43 -53 -31 -47 23 13 93 93 93 108 0 4 21 30 47 56
49 50 54 62 11 28z"/>
<path d="M80 299 c0 -5 -6 -7 -12 -3 -17 9 -11 4 85 -85 43 -39 85 -71 94 -71
13 0 13 3 3 15 -27 33 0 24 31 -9 18 -20 38 -36 44 -36 7 0 18 -7 25 -15 7 -8
19 -15 27 -15 8 0 -13 22 -46 50 -33 27 -62 54 -65 59 -3 5 -21 6 -38 2 -31
-7 -35 -5 -73 45 -42 55 -75 83 -75 63z"/>
<path d="M810 279 c-12 -8 -10 -9 10 -5 20 4 35 -4 68 -34 52 -49 56 -38 4 13
-39 39 -57 44 -82 26z"/>
<path d="M1524 245 c-8 -11 -14 -24 -14 -30 0 -6 -15 -25 -33 -43 -33 -32 -54
-42 -41 -19 4 6 3 8 -1 4 -9 -8 -16 -37 -9 -37 2 0 30 18 63 41 39 26 58 46
54 55 -3 8 0 14 7 14 6 0 8 -4 5 -10 -3 -5 -2 -10 4 -10 5 0 13 5 16 10 3 6
11 10 17 10 6 0 5 -7 -3 -17 -13 -16 -12 -17 3 -5 10 8 16 18 15 22 -1 5 7 15
17 23 18 13 14 14 -33 13 -41 -1 -56 -6 -67 -21z"/>
<path d="M2165 224 c-32 -26 -23 -33 9 -9 25 19 40 19 33 1 -4 -10 -1 -13 9
-9 19 7 18 16 -4 29 -14 9 -24 7 -47 -12z"/>
<path d="M1650 205 c-12 -19 -31 -43 -43 -53 -12 -10 -31 -28 -42 -42 -18 -22
-17 -21 18 4 20 16 37 33 37 39 0 6 3 7 7 4 6 -7 29 19 33 38 1 6 6 18 11 28
17 31 1 18 -21 -18z"/>
<path d="M1925 167 c-48 -49 -49 -50 -9 -19 44 34 69 60 63 66 -2 3 -27 -19
-54 -47z"/>
<path d="M696 202 c-6 -9 80 -57 102 -57 7 0 16 -5 20 -10 24 -34 162 -97 237
-109 11 -1 30 -8 42 -14 12 -7 30 -12 40 -12 42 0 -43 39 -101 45 -34 4 -79
17 -101 30 -87 49 -115 67 -115 77 0 6 -6 8 -12 6 -12 -5 -24 1 -90 42 -9 5
-19 6 -22 2z"/>
<path d="M1830 193 c-20 -14 -164 -137 -205 -175 -5 -6 8 1 30 13 22 13 54 37
70 54 17 17 55 52 85 78 56 48 64 61 20 30z"/>
<path d="M1775 102 c-49 -48 -82 -81 -72 -73 9 7 17 10 17 7 0 -4 13 2 29 13
33 24 46 27 35 9 -4 -7 7 -2 25 11 54 39 46 15 -8 -26 -29 -21 -47 -39 -42
-41 10 -3 86 48 89 61 1 4 2 8 3 10 11 35 7 37 -29 15 -34 -20 -36 -20 -19 -2
9 12 17 24 17 29 0 5 12 21 27 37 14 15 25 30 22 32 -2 2 -44 -35 -94 -82z"/>
<path d="M2560 143 c-36 -20 -75 -45 -87 -55 -13 -12 -27 -17 -35 -13 -10 6
-10 5 -2 -4 13 -14 64 2 64 19 0 6 4 9 9 6 5 -4 11 -3 13 2 1 4 30 25 63 45
76 47 60 48 -25 0z"/>
<path d="M2155 149 c-44 -28 -91 -34 -119 -15 -23 15 -25 14 -59 -23 -20 -22
-37 -37 -39 -35 -3 2 -20 -13 -39 -33 -19 -20 -29 -34 -24 -32 69 31 87 43
123 82 27 27 52 36 52 17 0 -5 8 -10 17 -10 14 0 12 -5 -8 -27 l-24 -27 30 18
c17 10 39 27 51 37 11 11 25 19 30 19 6 0 21 11 34 25 28 29 17 31 -25 4z"/>
<path d="M334 147 c10 -7 33 -23 50 -37 27 -21 28 -21 12 -2 l-18 21 31 -9
c17 -5 31 -7 31 -5 0 9 -39 25 -81 34 -35 7 -40 7 -25 -2z"/>
<path d="M2194 121 c-4 -17 -10 -29 -14 -26 -4 3 -10 -5 -13 -17 -4 -12 -9
-19 -13 -15 -4 4 -14 -2 -21 -13 -8 -11 -19 -17 -25 -14 -7 4 -8 2 -4 -5 6 -9
11 -9 21 -1 9 8 14 8 17 -1 4 -13 68 49 68 68 0 16 37 36 52 27 6 -4 25 -7 42
-7 l31 0 -27 -10 c-16 -6 -28 -15 -28 -19 0 -10 56 17 64 31 3 5 -18 11 -47
14 -28 3 -62 8 -75 12 -19 6 -23 3 -28 -24z"/>
<path d="M690 100 c24 -22 46 -37 48 -35 7 6 -69 75 -82 75 -6 -1 9 -18 34
-40z"/>
<path d="M453 117 c2 -7 16 -11 30 -9 16 2 27 -1 27 -8 0 -7 7 -10 15 -6 9 3
15 0 15 -10 0 -10 6 -14 15 -10 8 3 15 2 15 -2 1 -16 83 -67 113 -70 l32 -3
-39 20 c-21 11 -43 18 -48 15 -5 -3 -7 0 -6 7 2 7 -2 13 -9 14 -6 0 -24 11
-40 25 -41 37 -52 43 -90 46 -23 2 -33 -2 -30 -9z"/>
<path d="M2120 89 c-14 -12 -34 -27 -44 -35 -11 -7 -18 -16 -15 -18 3 -3 25
12 49 34 47 40 54 55 10 19z"/>
</g>
</svg>
